<?xml version="1.0" encoding="utf-8"?>
<!-- Generator: Adobe Illustrator 26.5.0, SVG Export Plug-In . SVG Version: 6.00 Build 0)  -->
<svg version="1.1" id="Capa_1" xmlns="http://www.w3.org/2000/svg" xmlns:xlink="http://www.w3.org/1999/xlink" x="0px" y="0px"
	 viewBox="0 0 1366 768" style="enable-background:new 0 0 1366 768;" xml:space="preserve">
<style type="text/css">
	.st0{fill:#EB0028;}
	.st1{opacity:0.9;fill:#EB0028;}
	.st2{fill:#FFFFFF;}
</style>
<rect width="1366" height="768"/>
<rect class="st0" width="77" height="768"/>
<circle class="st0" cx="1309" cy="35" r="207"/>
<circle class="st1" cx="1186.5" cy="208.5" r="40.5"/>
<rect x="1286" y="258" class="st0" width="3" height="411"/>
<polygon class="st2" points="1283,706 1291.12,706 1291.12,696.82 1300.09,696.82 1300.09,689 1290.97,689 1291,680 1283,680 
	1283,689 1274,689 1274,697 1283,697 "/>
<rect x="570.54" y="-366.46" transform="matrix(6.123234e-17 -1 1 6.123234e-17 524.5 619.543)" class="st0" width="2.96" height="827.96"/>
<polygon class="st2" points="121.04,52.04 121.04,43.92 130.22,43.92 130.22,34.96 138.04,34.96 138.04,44.07 147.04,44.04 
	147.04,52.04 138.04,52.04 138.04,61.04 130.04,61.04 130.04,52.04 "/>
<g>
	<circle class="st2" cx="1012.5" cy="67.5" r="1.5"/>
	<circle class="st2" cx="1012.5" cy="83.5" r="1.5"/>
	<circle class="st2" cx="1012.5" cy="99.5" r="1.5"/>
	<circle class="st2" cx="1012.5" cy="115.5" r="1.5"/>
	<circle class="st2" cx="1029.5" cy="67.5" r="1.5"/>
	<circle class="st2" cx="1029.5" cy="83.5" r="1.5"/>
	<circle class="st2" cx="1029.5" cy="99.5" r="1.5"/>
	<circle class="st2" cx="1029.5" cy="115.5" r="1.5"/>
	<circle class="st2" cx="1046.5" cy="67.5" r="1.5"/>
	<circle class="st2" cx="1046.5" cy="83.5" r="1.5"/>
	<circle class="st2" cx="1046.5" cy="99.5" r="1.5"/>
	<circle class="st2" cx="1046.5" cy="115.5" r="1.5"/>
	<circle class="st2" cx="1063.5" cy="67.5" r="1.5"/>
	<circle class="st2" cx="1063.5" cy="83.5" r="1.5"/>
	<circle class="st2" cx="1063.5" cy="99.5" r="1.5"/>
	<circle class="st2" cx="1063.5" cy="115.5" r="1.5"/>
	<circle class="st2" cx="1080.5" cy="67.5" r="1.5"/>
	<circle class="st2" cx="1080.5" cy="83.5" r="1.5"/>
	<circle class="st2" cx="1080.5" cy="99.5" r="1.5"/>
	<circle class="st2" cx="1080.5" cy="115.5" r="1.5"/>
	<circle class="st2" cx="1097.5" cy="67.5" r="1.5"/>
	<circle class="st2" cx="1097.5" cy="83.5" r="1.5"/>
	<circle class="st2" cx="1097.5" cy="99.5" r="1.5"/>
	<circle class="st2" cx="1097.5" cy="115.5" r="1.5"/>
	<circle class="st2" cx="1114.5" cy="67.5" r="1.5"/>
	<circle class="st2" cx="1114.5" cy="83.5" r="1.5"/>
	<circle class="st2" cx="1114.5" cy="99.5" r="1.5"/>
	<circle class="st2" cx="1114.5" cy="115.5" r="1.5"/>
	<circle class="st2" cx="1131.5" cy="67.5" r="1.5"/>
	<circle class="st2" cx="1131.5" cy="83.5" r="1.5"/>
	<circle class="st2" cx="1131.5" cy="99.5" r="1.5"/>
	<circle class="st2" cx="1131.5" cy="115.5" r="1.5"/>
	<circle class="st2" cx="1148.5" cy="67.5" r="1.5"/>
	<circle class="st2" cx="1148.5" cy="83.5" r="1.5"/>
	<circle class="st2" cx="1148.5" cy="99.5" r="1.5"/>
	<circle class="st2" cx="1148.5" cy="115.5" r="1.5"/>
	<circle class="st2" cx="1165.5" cy="67.5" r="1.5"/>
	<circle class="st2" cx="1165.5" cy="83.5" r="1.5"/>
	<circle class="st2" cx="1165.5" cy="99.5" r="1.5"/>
	<circle class="st2" cx="1165.5" cy="115.5" r="1.5"/>
	<circle class="st2" cx="1182.5" cy="67.5" r="1.5"/>
	<circle class="st2" cx="1182.5" cy="83.5" r="1.5"/>
	<circle class="st2" cx="1182.5" cy="99.5" r="1.5"/>
	<circle class="st2" cx="1182.5" cy="115.5" r="1.5"/>
	<circle class="st2" cx="1199.5" cy="67.5" r="1.5"/>
	<circle class="st2" cx="1199.5" cy="83.5" r="1.5"/>
	<circle class="st2" cx="1199.5" cy="99.5" r="1.5"/>
	<circle class="st2" cx="1199.5" cy="115.5" r="1.5"/>
	<circle class="st2" cx="1216.5" cy="67.5" r="1.5"/>
	<circle class="st2" cx="1216.5" cy="83.5" r="1.5"/>
	<circle class="st2" cx="1216.5" cy="99.5" r="1.5"/>
	<circle class="st2" cx="1216.5" cy="115.5" r="1.5"/>
	<circle class="st2" cx="1233.5" cy="67.5" r="1.5"/>
	<circle class="st2" cx="1233.5" cy="83.5" r="1.5"/>
	<circle class="st2" cx="1233.5" cy="99.5" r="1.5"/>
	<circle class="st2" cx="1233.5" cy="115.5" r="1.5"/>
	<circle class="st2" cx="1250.5" cy="67.5" r="1.5"/>
	<circle class="st2" cx="1250.5" cy="83.5" r="1.5"/>
	<circle class="st2" cx="1250.5" cy="99.5" r="1.5"/>
	<circle class="st2" cx="1250.5" cy="115.5" r="1.5"/>
</g>
<g>
	<circle class="st2" cx="60.5" cy="677.5" r="1.5"/>
	<circle class="st2" cx="76.5" cy="677.5" r="1.5"/>
	<circle class="st2" cx="92.5" cy="677.5" r="1.5"/>
	<circle class="st2" cx="108.5" cy="677.5" r="1.5"/>
	<circle class="st2" cx="60.5" cy="660.5" r="1.5"/>
	<circle class="st2" cx="76.5" cy="660.5" r="1.5"/>
	<circle class="st2" cx="92.5" cy="660.5" r="1.5"/>
	<circle class="st2" cx="108.5" cy="660.5" r="1.5"/>
	<circle class="st2" cx="60.5" cy="643.5" r="1.5"/>
	<circle class="st2" cx="76.5" cy="643.5" r="1.5"/>
	<circle class="st2" cx="92.5" cy="643.5" r="1.5"/>
	<circle class="st2" cx="108.5" cy="643.5" r="1.5"/>
	<circle class="st2" cx="60.5" cy="626.5" r="1.5"/>
	<circle class="st2" cx="76.5" cy="626.5" r="1.5"/>
	<circle class="st2" cx="92.5" cy="626.5" r="1.5"/>
	<circle class="st2" cx="108.5" cy="626.5" r="1.5"/>
	<circle class="st2" cx="60.5" cy="609.5" r="1.5"/>
	<circle class="st2" cx="76.5" cy="609.5" r="1.5"/>
	<circle class="st2" cx="92.5" cy="609.5" r="1.5"/>
	<circle class="st2" cx="108.5" cy="609.5" r="1.5"/>
	<circle class="st2" cx="60.5" cy="592.5" r="1.5"/>
	<circle class="st2" cx="76.5" cy="592.5" r="1.5"/>
	<circle class="st2" cx="92.5" cy="592.5" r="1.5"/>
	<circle class="st2" cx="108.5" cy="592.5" r="1.5"/>
	<circle class="st2" cx="60.5" cy="575.5" r="1.5"/>
	<circle class="st2" cx="76.5" cy="575.5" r="1.5"/>
	<circle class="st2" cx="92.5" cy="575.5" r="1.5"/>
	<circle class="st2" cx="108.5" cy="575.5" r="1.5"/>
	<circle class="st2" cx="60.5" cy="558.5" r="1.5"/>
	<circle class="st2" cx="76.5" cy="558.5" r="1.5"/>
	<circle class="st2" cx="92.5" cy="558.5" r="1.5"/>
	<circle class="st2" cx="108.5" cy="558.5" r="1.5"/>
	<circle class="st2" cx="60.5" cy="541.5" r="1.5"/>
	<circle class="st2" cx="76.5" cy="541.5" r="1.5"/>
	<circle class="st2" cx="92.5" cy="541.5" r="1.5"/>
	<circle class="st2" cx="108.5" cy="541.5" r="1.5"/>
	<circle class="st2" cx="60.5" cy="524.5" r="1.5"/>
	<circle class="st2" cx="76.5" cy="524.5" r="1.5"/>
	<circle class="st2" cx="92.5" cy="524.5" r="1.5"/>
	<circle class="st2" cx="108.5" cy="524.5" r="1.5"/>
	<circle class="st2" cx="60.5" cy="507.5" r="1.5"/>
	<circle class="st2" cx="76.5" cy="507.5" r="1.5"/>
	<circle class="st2" cx="92.5" cy="507.5" r="1.5"/>
	<circle class="st2" cx="108.5" cy="507.5" r="1.5"/>
	<circle class="st2" cx="60.5" cy="490.5" r="1.5"/>
	<circle class="st2" cx="76.5" cy="490.5" r="1.5"/>
	<circle class="st2" cx="92.5" cy="490.5" r="1.5"/>
	<circle class="st2" cx="108.5" cy="490.5" r="1.5"/>
	<circle class="st2" cx="60.5" cy="473.5" r="1.5"/>
	<circle class="st2" cx="76.5" cy="473.5" r="1.5"/>
	<circle class="st2" cx="92.5" cy="473.5" r="1.5"/>
	<circle class="st2" cx="108.5" cy="473.5" r="1.5"/>
	<circle class="st2" cx="60.5" cy="456.5" r="1.5"/>
	<circle class="st2" cx="76.5" cy="456.5" r="1.5"/>
	<circle class="st2" cx="92.5" cy="456.5" r="1.5"/>
	<circle class="st2" cx="108.5" cy="456.5" r="1.5"/>
	<circle class="st2" cx="60.5" cy="439.5" r="1.5"/>
	<circle class="st2" cx="76.5" cy="439.5" r="1.5"/>
	<circle class="st2" cx="92.5" cy="439.5" r="1.5"/>
	<circle class="st2" cx="108.5" cy="439.5" r="1.5"/>
</g>
</svg>
