<?xml version="1.0" encoding="utf-8"?>
<!-- Generator: Adobe Illustrator 26.5.0, SVG Export Plug-In . SVG Version: 6.00 Build 0)  -->
<svg version="1.1" id="Capa_1" xmlns="http://www.w3.org/2000/svg" xmlns:xlink="http://www.w3.org/1999/xlink" x="0px" y="0px"
	 viewBox="0 0 682.67 682.67" style="enable-background:new 0 0 682.67 682.67;" xml:space="preserve">
<style type="text/css">
	.st0{fill:#FFFFFF;}
</style>
<g>
	<path class="st0" d="M462.19,659.85c0-82.91,0-164.71,0-247.2c27.73,0,55.12,0,83.01,0c4.18-32.39,8.29-64.16,12.48-96.68
		c-32.06,0-63.47,0-94.42,0c-0.72-1.02-1.19-1.38-1.19-1.74c-0.03-22.4-0.83-44.85,0.19-67.2c1.23-26.62,14.3-38.66,41.13-39.44
		c16.4-0.48,32.83-0.15,49.24-0.18c2.38,0,4.76,0,7.44,0c0-29.03,0-57.33,0-86.4c-8.18-0.72-16.26-1.74-24.36-2.08
		c-27.43-1.14-54.92-4.21-82.22,1.65c-49.05,10.54-82.29,45.04-88.66,94.75c-2.83,22.1-2.11,44.67-2.76,67.04
		c-0.31,10.82-0.05,21.67-0.05,33.32c-27.66,0-54.8,0-82.36,0c0,32.62,0,64.41,0,96.69c27.23,0,54.22,0,81.78,0
		c0,82.44,0,164.38,0,247.47c-2.09,0-4.41,0-6.72,0c-98.49,0-196.99,0.02-295.48-0.01c-23.68-0.01-38.28-14.49-38.28-38.05
		c-0.03-187.71-0.03-375.41,0-563.12c0-23.43,14.27-37.8,37.66-37.8c187.67-0.04,375.34-0.04,563.01,0
		c23.67,0,38.17,14.51,38.18,38.17c0.03,187.48,0.03,374.97,0,562.45c0,23.51-14.8,38.33-38.2,38.35
		c-50.8,0.05-101.6,0.02-152.4,0.02C467.03,659.85,464.85,659.85,462.19,659.85z"/>
</g>
</svg>
