<?xml version="1.0" encoding="utf-8"?>
<!-- Generator: Adobe Illustrator 26.5.0, SVG Export Plug-In . SVG Version: 6.00 Build 0)  -->
<svg version="1.1" id="Capa_1" xmlns="http://www.w3.org/2000/svg" xmlns:xlink="http://www.w3.org/1999/xlink" x="0px" y="0px"
	 viewBox="0 0 512 512" style="enable-background:new 0 0 512 512;" xml:space="preserve">
<style type="text/css">
	.st0{fill:#FFFFFF;}
</style>
<g>
	<path class="st0" d="M334,512c-51.33,0-102.67,0-154,0c-3.13-0.27-6.26-0.71-9.39-0.79c-20.49-0.52-40.94-1.33-60.97-6.24
		c-42.1-10.33-73.44-34.27-92.11-73.74c-11.53-24.4-15.11-50.63-15.39-77.27c-0.6-55.45-1.21-110.92-0.76-166.37
		c0.19-23.24,1.59-46.67,5-69.64c5.32-35.79,22.59-65.5,51.89-87.45c25.11-18.81,54.16-26.29,84.9-28.46
		C155.43,1.17,167.72,0.67,180,0c51,0,102,0,153,0c11.94,0.66,23.89,1.29,35.83,1.99c20.9,1.23,41.37,4.84,60.55,13.46
		c47.06,21.17,71.86,58.88,79.58,108.88c1.36,8.83,2.05,17.77,3.04,26.66c0,68.67,0,137.33,0,206c-0.28,1.78-0.63,3.56-0.82,5.36
		c-1.08,10.07-1.59,20.24-3.28,30.21c-5.43,32.13-19.16,59.99-43.83,81.87c-26.74,23.72-58.93,33.18-93.77,35.54
		C358.21,510.8,346.1,511.34,334,512z M257.05,466.75c0.01-0.26,0.01-0.53,0.02-0.79c13.5,0,27.01,0.4,40.49-0.08
		c28.95-1.04,58.04-1.05,86.78-4.19c39.15-4.29,67.17-29.51,76-67.15c3.69-15.74,5.09-32.28,5.41-48.5
		c0.93-47.48,1.25-94.98,0.88-142.47c-0.19-24.78-0.99-49.71-3.9-74.29c-4.88-41.12-30.82-69.06-71.29-77.11
		c-17.67-3.51-36.03-4.61-54.11-4.87c-47.98-0.7-95.99-0.79-143.97-0.23c-22.27,0.26-44.73,1.07-66.71,4.29
		c-39.02,5.71-65.56,31.11-73.48,69.72c-3.42,16.68-4.57,34.01-4.93,51.08c-0.88,41.15-1.2,82.32-0.75,123.48
		c0.32,28.79,1.05,57.68,3.85,86.3c2.85,29.11,16.73,52.84,42.71,68c16.16,9.43,34.13,13.33,52.59,13.98
		C183.42,465.21,220.24,465.84,257.05,466.75z"/>
	<path class="st0" d="M125.39,255.93c0.11-72.63,59.32-131.65,131.79-131.35c72.85,0.3,131.68,59.4,131.23,131.83
		c-0.45,72.71-59.11,131.24-131.46,131.18C184.34,387.52,125.29,328.43,125.39,255.93z M256.5,341.25
		c47.24,0.22,85.36-37.45,85.66-84.64c0.3-47.22-37.35-85.43-84.52-85.78c-47.42-0.36-85.71,37.48-85.91,84.89
		C171.53,302.89,209.34,341.03,256.5,341.25z"/>
	<path class="st0" d="M424.27,119.58c-0.12,17.12-13.92,30.62-31.1,30.42c-16.73-0.2-30.26-14.06-30.17-30.92
		c0.1-16.86,13.74-30.36,30.67-30.34C410.88,88.74,424.38,102.36,424.27,119.58z"/>
</g>
</svg>
