<?xml version="1.0" encoding="utf-8"?>
<!-- Generator: Adobe Illustrator 26.5.0, SVG Export Plug-In . SVG Version: 6.00 Build 0)  -->
<svg version="1.1"
	 id="svg2" xmlns:rdf="http://www.w3.org/1999/02/22-rdf-syntax-ns#" xmlns:svg="http://www.w3.org/2000/svg" xmlns:inkscape="http://www.inkscape.org/namespaces/inkscape" xmlns:sodipodi="http://sodipodi.sourceforge.net/DTD/sodipodi-0.dtd" xmlns:dc="http://purl.org/dc/elements/1.1/" xmlns:cc="http://creativecommons.org/ns#" sodipodi:docname="TEDxAmsterdam_logo_place_RGB_CS2.eps"
	 xmlns="http://www.w3.org/2000/svg" xmlns:xlink="http://www.w3.org/1999/xlink" x="0px" y="0px" viewBox="0 0 2275.1 418.2"
	 style="enable-background:new 0 0 2275.1 418.2;" xml:space="preserve">
<style type="text/css">
	.st0{fill:#EA3C2A;}
	.st1{fill:#FFFFFF;}
</style>
<path id="path14" class="st0" d="M137.4,304.2l-10.1-14.5h9.6l5.4,8l5.3-8h9.3l-10,14.3l11.3,16.3h-9.6l-6.4-9.7l-6.4,9.7h-9.4
	L137.4,304.2"/>
<path id="path16" class="st1" d="M198.2,314.9h-30v-6.4h30V314.9z M198.2,302.2h-30v-6.4h30V302.2"/>
<path id="path18" class="st1" d="M212.7,289.6h8.4v30.7h-8.4V289.6z M221.1,284.9h-8.4V278h8.4V284.9"/>
<path id="path20" class="st1" d="M226.6,289.6h8v4.3h0.2c2.1-3.4,5.8-5.1,9.4-5.1c9,0,11.2,5,11.2,12.6v18.9H247V303
	c0-5-1.5-7.5-5.4-7.5c-4.6,0-6.5,2.6-6.5,8.8v16.1h-8.4L226.6,289.6"/>
<path id="path22" class="st1" d="M275.1,295.2c-5.5,0-7.4,4.7-7.4,9.8c0,4.8,2.2,9.9,7.4,9.9c5.6,0,7.2-4.9,7.2-9.9
	C282.4,299.9,280.6,295.2,275.1,295.2z M282.5,316.4h-0.1c-2,3.3-5.4,4.7-9.3,4.7c-9.3,0-13.8-8-13.8-16.4c0-8.2,4.6-15.9,13.6-15.9
	c3.6,0,7.2,1.5,9.1,4.6l0,0h0.1V278h8.4v42.4h-8L282.5,316.4"/>
<path id="path24" class="st1" d="M316.3,301.7c-0.8-4.3-2.6-6.5-6.7-6.5c-5.3,0-6.9,4.2-7,6.5H316.3z M302.6,307
	c0.2,5.3,2.8,7.8,7.5,7.8c3.4,0,6.1-2.1,6.6-4h7.4c-2.4,7.2-7.4,10.3-14.4,10.3c-9.7,0-15.7-6.6-15.7-16.1c0-9.2,6.4-16.2,15.7-16.2
	c10.4,0,15.5,8.8,14.9,18.2L302.6,307"/>
<path id="path26" class="st1" d="M351.3,305.1c0-4.9-2-9.9-7.4-9.9c-5.5,0-7.3,4.9-7.3,9.9s1.9,9.7,7.4,9.7
	C349.5,314.8,351.3,310,351.3,305.1z M328.5,289.6h8v3.9h0.1c2-3.3,5.3-4.7,9.1-4.7c9.6,0,13.9,7.8,13.9,16.5
	c0,8.2-4.5,15.8-13.5,15.8c-3.7,0-7.2-1.6-9.2-4.6h0.1v14.6h-8.4v-41.5"/>
<path id="path28" class="st1" d="M384.3,301.7c-0.8-4.3-2.6-6.5-6.7-6.5c-5.3,0-6.9,4.2-7,6.5H384.3z M370.5,307
	c0.2,5.3,2.8,7.8,7.5,7.8c3.4,0,6.1-2.1,6.6-4h7.4c-2.4,7.2-7.4,10.3-14.4,10.3c-9.7,0-15.7-6.6-15.7-16.1c0-9.2,6.4-16.2,15.7-16.2
	c10.4,0,15.5,8.8,14.9,18.2L370.5,307"/>
<path id="path30" class="st1" d="M396.5,289.6h8v4.3h0.2c2.1-3.4,5.8-5.1,9.4-5.1c9,0,11.2,5,11.2,12.6v18.9h-8.4V303
	c0-5-1.5-7.5-5.4-7.5c-4.6,0-6.5,2.6-6.5,8.8v16.1h-8.4L396.5,289.6"/>
<path id="path32" class="st1" d="M445,295.2c-5.5,0-7.4,4.7-7.4,9.8c0,4.8,2.2,9.9,7.4,9.9c5.6,0,7.2-4.9,7.2-9.9
	C452.3,299.9,450.5,295.2,445,295.2z M452.4,316.4h-0.1c-2,3.3-5.4,4.7-9.3,4.7c-9.3,0-13.8-8-13.8-16.4c0-8.2,4.6-15.9,13.6-15.9
	c3.6,0,7.2,1.5,9.1,4.6h-0.1h0.1V278h8.4v42.4h-8L452.4,316.4"/>
<path id="path34" class="st1" d="M486.2,301.7c-0.8-4.3-2.6-6.5-6.7-6.5c-5.3,0-6.9,4.2-7,6.5H486.2z M472.5,307
	c0.2,5.3,2.9,7.8,7.5,7.8c3.4,0,6.1-2.1,6.6-4h7.4c-2.4,7.2-7.4,10.3-14.4,10.3c-9.7,0-15.7-6.6-15.7-16.1c0-9.2,6.4-16.2,15.7-16.2
	c10.4,0,15.5,8.8,14.9,18.2L472.5,307"/>
<path id="path36" class="st1" d="M498.4,289.6h8v4.3h0.2c2.1-3.4,5.8-5.1,9.4-5.1c9,0,11.2,5,11.2,12.6v18.9h-8.4V303
	c0-5-1.5-7.5-5.4-7.5c-4.6,0-6.5,2.6-6.5,8.8v16.1h-8.4L498.4,289.6"/>
<path id="path38" class="st1" d="M543.1,289.6h6.2v5.6h-6.2v15.2c0,2.9,0.7,3.6,3.6,3.6c0.9,0,1.7-0.1,2.6-0.2v6.6
	c-1.4,0.2-3.3,0.3-4.9,0.3c-5.2,0-9.7-1.2-9.7-7.3v-18.1h-5.1v-5.6h5.1v-9.2h8.4L543.1,289.6"/>
<path id="path40" class="st1" d="M552.4,277.9h8.4v42.4h-8.4V277.9"/>
<path id="path42" class="st1" d="M581.4,324.2c-1.8,4.9-4.7,6.9-10.6,6.9c-1.7,0-3.4-0.1-5.2-0.3v-6.9c1.6,0.1,3.3,0.4,4.9,0.3
	c2.9-0.3,3.9-3.3,2.9-5.8l-10.8-28.8h9l6.9,21h0.1l6.7-21h8.7L581.4,324.2"/>
<path id="path44" class="st1" d="M626.1,314.8c5.8,0,7.5-4.9,7.5-9.8s-1.7-9.9-7.5-9.9c-5.7,0-7.4,4.9-7.4,9.9
	C618.7,309.9,620.4,314.8,626.1,314.8z M626.1,288.8c9.7,0,15.9,6.4,15.9,16.2c0,9.7-6.2,16.1-15.9,16.1c-9.6,0-15.8-6.4-15.8-16.1
	C610.2,295.2,616.5,288.8,626.1,288.8"/>
<path id="path46" class="st1" d="M645.1,289.6h8v5.7h0.1c1.5-3.9,5.7-6.5,9.8-6.5c0.6,0,1.3,0.1,1.8,0.3v7.8c-0.8-0.2-2-0.3-3-0.3
	c-6.2,0-8.3,4.4-8.3,9.9v13.8h-8.4L645.1,289.6"/>
<path id="path48" class="st1" d="M688.4,304.6c0-5-1.7-9.4-7.2-9.4c-4.7,0-6.8,4.2-6.8,8.7c0,4.4,1.7,9.2,6.8,9.2
	C686.1,313.1,688.4,309,688.4,304.6z M696.5,318.4c0,5-1.8,13.6-15.9,13.6c-6.1,0-13.1-2.8-13.5-9.9h8.4c0.8,3.1,3.3,4.2,6.3,4.2
	c4.7,0,6.8-3.2,6.8-7.6v-4h-0.1c-1.8,3.2-5.5,4.7-9.2,4.7c-9.2,0-13.1-7-13.1-15.4c0-8,4.6-15.2,13.2-15.2c4,0,7.1,1.4,9.1,4.9h0.1
	v-4.1h8L696.5,318.4"/>
<path id="path50" class="st1" d="M720,305.3c-1.4,1.2-4.4,1.3-7,1.8s-5,1.4-5,4.5s2.4,3.9,5.2,3.9c6.6,0,6.8-5.2,6.8-7.1V305.3
	L720,305.3z M700.5,299.1c0.5-7.9,7.5-10.3,14.4-10.3c6.1,0,13.5,1.4,13.5,8.7v16c0,2.8,0.3,5.6,1.1,6.8H721c-0.3-0.9-0.5-2-0.6-3
	c-2.7,2.8-6.6,3.8-10.3,3.8c-5.8,0-10.4-2.9-10.4-9.2c0-6.9,5.2-8.6,10.4-9.3c5.2-0.8,10-0.6,10-4c0-3.6-2.5-4.2-5.5-4.2
	c-3.2,0-5.3,1.3-5.6,4.6L700.5,299.1"/>
<path id="path52" class="st1" d="M733.7,289.6h8v4.3h0.2c2.1-3.4,5.8-5.1,9.4-5.1c9,0,11.2,5,11.2,12.6v18.9h-8.4V303
	c0-5-1.5-7.5-5.4-7.5c-4.6,0-6.5,2.6-6.5,8.8v16.1h-8.4L733.7,289.6"/>
<path id="path54" class="st1" d="M766.8,289.6h8.4v30.7h-8.4V289.6z M775.2,284.9h-8.4V278h8.4V284.9"/>
<path id="path56" class="st1" d="M778.8,314l16-18H780v-6.4h25.9v6.4l-16,18H807v6.4h-28.2V314"/>
<path id="path58" class="st1" d="M830.9,301.7c-0.8-4.3-2.6-6.5-6.7-6.5c-5.3,0-6.9,4.2-7,6.5H830.9z M817.2,307
	c0.2,5.3,2.8,7.8,7.5,7.8c3.4,0,6.1-2.1,6.6-4h7.4c-2.4,7.2-7.4,10.3-14.4,10.3c-9.7,0-15.7-6.6-15.7-16.1c0-9.2,6.4-16.2,15.7-16.2
	c10.4,0,15.5,8.8,14.9,18.2L817.2,307"/>
<path id="path60" class="st1" d="M857.7,295.2c-5.5,0-7.4,4.7-7.4,9.8c0,4.8,2.2,9.9,7.4,9.9c5.6,0,7.2-4.9,7.2-9.9
	C864.9,299.9,863.1,295.2,857.7,295.2z M865,316.4L865,316.4c-2.1,3.3-5.5,4.7-9.4,4.7c-9.3,0-13.8-8-13.8-16.4
	c0-8.2,4.6-15.9,13.6-15.9c3.6,0,7.2,1.5,9.1,4.6h-0.1h0.1V278h8.4v42.4h-8L865,316.4"/>
<path id="path62" class="st1" d="M903.8,285.8h-12.7V278h34.7v7.8h-12.7v34.5h-9.3V285.8"/>
<path id="path64" class="st1" d="M929.5,277.9h31.7v7.8h-22.4v9.1h20.5v7.2h-20.5v10.4h22.8v7.8h-32.2v-42.3"/>
<path id="path66" class="st1" d="M974.9,312.5h8.3c5.4,0,10.6-3.3,10.6-12.7c0-8.5-3-14-12.2-14H975L974.9,312.5L974.9,312.5z
	 M965.6,277.9h18.3c11,0,19.2,6.9,19.2,21c0,12.3-6.3,21.4-19.2,21.4h-18.3V277.9"/>
<path id="path68" class="st1" d="M1043.4,301.7c-0.8-4.3-2.6-6.5-6.7-6.5c-5.3,0-6.9,4.2-7,6.5H1043.4z M1029.7,307
	c0.2,5.3,2.9,7.8,7.5,7.8c3.4,0,6.1-2.1,6.6-4h7.4c-2.4,7.2-7.4,10.3-14.4,10.3c-9.7,0-15.7-6.6-15.7-16.1c0-9.2,6.4-16.2,15.7-16.2
	c10.4,0,15.5,8.8,14.9,18.2L1029.7,307"/>
<path id="path70" class="st1" d="M1071.4,320.3h-9.4l-10.5-30.7h8.8l6.5,20.9h0.1l6.5-20.9h8.4L1071.4,320.3"/>
<path id="path72" class="st1" d="M1103.6,301.7c-0.8-4.3-2.6-6.5-6.7-6.5c-5.3,0-6.9,4.2-7,6.5H1103.6z M1089.9,307
	c0.2,5.3,2.8,7.8,7.5,7.8c3.4,0,6.1-2.1,6.6-4h7.4c-2.4,7.2-7.4,10.3-14.4,10.3c-9.7,0-15.7-6.6-15.7-16.1c0-9.2,6.3-16.2,15.7-16.2
	c10.4,0,15.5,8.8,14.9,18.2L1089.9,307"/>
<path id="path74" class="st1" d="M1115.8,289.6h8v4.3h0.2c2.1-3.4,5.8-5.1,9.4-5.1c9,0,11.2,5,11.2,12.6v18.9h-8.4V303
	c0-5-1.5-7.5-5.4-7.5c-4.6,0-6.5,2.6-6.5,8.8v16.1h-8.4L1115.8,289.6"/>
<path id="path76" class="st1" d="M1160.5,289.6h6.2v5.6h-6.2v15.2c0,2.9,0.7,3.6,3.6,3.6c0.9,0,1.7-0.1,2.6-0.2v6.6
	c-1.4,0.2-3.3,0.3-4.9,0.3c-5.2,0-9.7-1.2-9.7-7.3v-18.1h-5.1v-5.6h5.1v-9.2h8.4V289.6"/>
<path id="path78" class="st0" d="M162.8,137.8h-39.5v-36.2h122.5v36.2h-39.5v104.9h-43.4L162.8,137.8"/>
<path id="path80" class="st0" d="M252.5,101.6h118.9v36.2H296v17.6h75.5V189H296v17.6h75.5v36.2h-119V101.6"/>
<path id="path82" class="st0" d="M422.2,206.5h17c27.1,0,31-21.9,31-35.2c0-8.9-2.8-33.6-34.2-33.6h-13.8V206.5L422.2,206.5z
	 M378.8,101.6h71.3c47,0,63.6,34.8,63.6,70.3c0,43.3-22.9,70.8-72.1,70.8h-62.8L378.8,101.6"/>
<path id="path84" class="st0" d="M576.2,188.3l-13.3-22l-12.9,22h-31.8l30.2-44.5l-29.1-42.5h31.9l11.8,21l12.1-21H607l-29.1,42.5
	l30.2,44.5H576.2"/>
<g>
	<path class="st1" d="M659.6,98.2v89.7c0,10.5,2,19.3,6,26.3c5.9,10.5,16,15.8,30.1,15.8c16.9,0,28.4-5.7,34.5-17.1
		c3.3-6.2,4.9-14.5,4.9-25V98.2h20v81.5c0,17.8-2.4,31.6-7.3,41.2c-8.9,17.5-25.8,26.3-50.5,26.3c-24.8,0-41.6-8.8-50.4-26.3
		c-4.9-9.6-7.3-23.3-7.3-41.2V98.2H659.6z"/>
	<path class="st1" d="M778.9,137.5h17v15c5-6.2,10.4-10.6,16-13.3c5.6-2.7,11.9-4,18.8-4c15.1,0,25.3,5.2,30.6,15.7
		c2.9,5.7,4.4,13.9,4.4,24.6v67.8h-18.2v-66.7c0-6.5-1-11.7-2.9-15.6c-3.2-6.6-9-9.9-17.3-9.9c-4.2,0-7.7,0.4-10.4,1.3
		c-4.9,1.4-9.2,4.3-12.9,8.7c-3,3.5-4.9,7.1-5.8,10.8c-0.9,3.7-1.3,9-1.3,15.9v55.4h-17.9V137.5z"/>
	<path class="st1" d="M888.1,98.2h18.2v20.1h-18.2V98.2z M888.1,138h18.2v105.3h-18.2V138z"/>
	<path class="st1" d="M931.1,98.2h28.4l42,122.7l41.7-122.7h28.2v145.1h-18.9v-85.6c0-3,0.1-7.9,0.2-14.7c0.1-6.8,0.2-14.2,0.2-22
		l-41.7,122.4h-19.6l-42.1-122.4v4.4c0,3.6,0.1,9,0.3,16.2c0.2,7.3,0.3,12.6,0.3,16v85.6h-18.9V98.2z"/>
	<path class="st1" d="M1172.1,148.1c9.4,9.1,14.1,22.4,14.1,40.1c0,17-4.1,31.1-12.4,42.2c-8.3,11.1-21.2,16.7-38.6,16.7
		c-14.6,0-26.1-4.9-34.7-14.8c-8.6-9.8-12.8-23-12.8-39.6c0-17.8,4.5-31.9,13.5-42.4c9-10.5,21.1-15.8,36.3-15.8
		C1151.1,134.5,1162.6,139,1172.1,148.1z M1160.9,218.4c4.4-8.9,6.5-18.8,6.5-29.7c0-9.9-1.6-17.9-4.7-24.1
		c-5-9.7-13.6-14.6-25.8-14.6c-10.8,0-18.7,4.1-23.6,12.4s-7.4,18.3-7.4,30c0,11.2,2.5,20.6,7.4,28.1s12.7,11.2,23.4,11.2
		C1148.5,231.7,1156.6,227.3,1160.9,218.4z"/>
	<path class="st1" d="M1204.1,137.5h17v15c5-6.2,10.4-10.6,16-13.3c5.6-2.7,11.9-4,18.8-4c15.1,0,25.3,5.2,30.6,15.7
		c2.9,5.7,4.4,13.9,4.4,24.6v67.8h-18.2v-66.7c0-6.5-1-11.7-2.9-15.6c-3.2-6.6-9-9.9-17.3-9.9c-4.2,0-7.7,0.4-10.4,1.3
		c-4.9,1.4-9.2,4.3-12.9,8.7c-3,3.5-4.9,7.1-5.8,10.8c-0.9,3.7-1.3,9-1.3,15.9v55.4h-17.9V137.5z"/>
	<path class="st1" d="M1316.9,108h18.1v29.5h17v14.5h-17v69c0,3.7,1.3,6.2,3.8,7.4c1.4,0.7,3.7,1.1,7,1.1c0.9,0,1.8,0,2.8-0.1
		c1,0,2.2-0.2,3.5-0.3v14.1c-2.1,0.6-4.2,1-6.4,1.3c-2.2,0.3-4.6,0.4-7.2,0.4c-8.4,0-14-2.1-17-6.4c-3-4.2-4.5-9.8-4.5-16.5v-70
		h-14.4v-14.5h14.4V108z"/>
	<path class="st1" d="M1431.6,140.5c7.1,3.5,12.4,8.1,16.1,13.7c3.6,5.3,5.9,11.6,7.1,18.7c1.1,4.9,1.6,12.6,1.6,23.3H1379
		c0.3,10.8,2.9,19.4,7.6,25.9s12.1,9.8,22,9.8c9.3,0,16.7-3.1,22.2-9.2c3.1-3.6,5.3-7.7,6.6-12.4h17.6c-0.5,3.9-2,8.2-4.6,13
		c-2.6,4.8-5.5,8.7-8.8,11.7c-5.4,5.3-12.1,8.8-20,10.7c-4.3,1.1-9.1,1.6-14.5,1.6c-13.2,0-24.3-4.8-33.5-14.4s-13.7-23-13.7-40.2
		c0-17,4.6-30.8,13.8-41.4c9.2-10.6,21.3-15.9,36.2-15.9C1417.3,135.2,1424.6,136.9,1431.6,140.5z M1438,182
		c-0.7-7.7-2.4-13.9-5-18.5c-4.9-8.6-13-12.8-24.4-12.8c-8.2,0-15,2.9-20.5,8.8c-5.5,5.9-8.5,13.4-8.8,22.5H1438z"/>
	<path class="st1" d="M1475,137.5h17.7v15c4.2-5.2,8.1-9,11.5-11.4c5.9-4,12.6-6,20.1-6c8.5,0,15.3,2.1,20.5,6.2
		c2.9,2.4,5.6,5.9,8,10.5c4-5.7,8.7-9.9,14-12.6c5.4-2.7,11.4-4.1,18.1-4.1c14.3,0,24.1,5.1,29.2,15.4c2.8,5.5,4.2,13,4.2,22.3v70.4
		h-18.6v-73.5c0-7-1.8-11.9-5.3-14.5c-3.5-2.6-7.9-4-13-4c-7,0-13.1,2.3-18.2,7c-5.1,4.7-7.6,12.5-7.6,23.4v61.5h-18.2v-69
		c0-7.2-0.9-12.4-2.6-15.7c-2.7-4.9-7.8-7.4-15.2-7.4c-6.8,0-12.9,2.6-18.5,7.8c-5.5,5.2-8.3,14.6-8.3,28.2v56.1H1475V137.5z"/>
	<path class="st1" d="M1717.8,148.1c9.4,9.1,14.1,22.4,14.1,40.1c0,17-4.1,31.1-12.4,42.2c-8.3,11.1-21.2,16.7-38.6,16.7
		c-14.6,0-26.1-4.9-34.7-14.8c-8.6-9.8-12.8-23-12.8-39.6c0-17.8,4.5-31.9,13.5-42.4c9-10.5,21.1-15.8,36.3-15.8
		C1696.9,134.5,1708.4,139,1717.8,148.1z M1706.7,218.4c4.4-8.9,6.5-18.8,6.5-29.7c0-9.9-1.6-17.9-4.7-24.1
		c-5-9.7-13.6-14.6-25.8-14.6c-10.8,0-18.7,4.1-23.6,12.4s-7.4,18.3-7.4,30c0,11.2,2.5,20.6,7.4,28.1s12.7,11.2,23.4,11.2
		C1694.3,231.7,1702.4,227.3,1706.7,218.4z"/>
	<path class="st1" d="M1750.4,137.5h17v18.3c1.4-3.6,4.8-7.9,10.2-13c5.4-5.1,11.7-7.7,18.8-7.7c0.3,0,0.9,0,1.7,0.1
		c0.8,0.1,2.2,0.2,4.1,0.4v18.8c-1.1-0.2-2-0.3-2.9-0.4c-0.9-0.1-1.9-0.1-2.9-0.1c-9,0-15.9,2.9-20.8,8.6
		c-4.8,5.8-7.3,12.4-7.3,19.9v60.8h-17.9V137.5z"/>
	<path class="st1" d="M1879.4,140.5c7.1,3.5,12.4,8.1,16.1,13.7c3.6,5.3,5.9,11.6,7.1,18.7c1.1,4.9,1.6,12.6,1.6,23.3h-77.5
		c0.3,10.8,2.9,19.4,7.6,25.9s12.1,9.8,22,9.8c9.3,0,16.7-3.1,22.2-9.2c3.1-3.6,5.3-7.7,6.6-12.4h17.6c-0.5,3.9-2,8.2-4.6,13
		c-2.6,4.8-5.5,8.7-8.8,11.7c-5.4,5.3-12.1,8.8-20,10.7c-4.3,1.1-9.1,1.6-14.5,1.6c-13.2,0-24.3-4.8-33.5-14.4s-13.7-23-13.7-40.2
		c0-17,4.6-30.8,13.8-41.4c9.2-10.6,21.3-15.9,36.2-15.9C1865.1,135.2,1872.4,136.9,1879.4,140.5z M1885.8,182
		c-0.7-7.7-2.4-13.9-5-18.5c-4.9-8.6-13-12.8-24.4-12.8c-8.2,0-15,2.9-20.5,8.8c-5.5,5.9-8.5,13.4-8.8,22.5H1885.8z"/>
	<path class="st1" d="M1923.3,98.2h17.9v145.1h-17.9V98.2z"/>
	<path class="st1" d="M2041.2,148.1c9.4,9.1,14.1,22.4,14.1,40.1c0,17-4.1,31.1-12.4,42.2c-8.3,11.1-21.2,16.7-38.6,16.7
		c-14.6,0-26.1-4.9-34.7-14.8c-8.6-9.8-12.8-23-12.8-39.6c0-17.8,4.5-31.9,13.5-42.4c9-10.5,21.1-15.8,36.3-15.8
		C2020.3,134.5,2031.8,139,2041.2,148.1z M2030.1,218.4c4.4-8.9,6.5-18.8,6.5-29.7c0-9.9-1.6-17.9-4.7-24.1
		c-5-9.7-13.6-14.6-25.8-14.6c-10.8,0-18.7,4.1-23.6,12.4s-7.4,18.3-7.4,30c0,11.2,2.5,20.6,7.4,28.1s12.7,11.2,23.4,11.2
		C2017.7,231.7,2025.7,227.3,2030.1,218.4z"/>
	<path class="st1" d="M2083.9,210.1c0.5,5.9,2.1,10.5,4.6,13.6c4.6,5.7,12.6,8.6,24,8.6c6.8,0,12.7-1.4,17.9-4.3
		c5.1-2.9,7.7-7.3,7.7-13.3c0-4.5-2.1-8-6.2-10.4c-2.6-1.4-7.8-3.1-15.6-5l-14.5-3.6c-9.2-2.2-16-4.7-20.4-7.5
		c-7.8-4.8-11.7-11.5-11.7-19.9c0-10,3.7-18.1,11-24.3c7.4-6.2,17.3-9.3,29.7-9.3c16.3,0,28,4.7,35.2,14c4.5,5.9,6.7,12.3,6.6,19.2
		h-16.9c-0.3-4-1.8-7.6-4.4-10.9c-4.2-4.6-11.5-7-21.9-7c-6.9,0-12.2,1.3-15.7,3.8c-3.6,2.6-5.3,5.9-5.3,10.1c0,4.6,2.3,8.3,7,11
		c2.7,1.6,6.7,3.1,12,4.3l12.1,2.9c13.1,3.1,21.9,6.1,26.3,9c7,4.5,10.4,11.7,10.4,21.4c0,9.4-3.6,17.5-10.9,24.4
		c-7.3,6.8-18.4,10.3-33.3,10.3c-16,0-27.4-3.6-34.1-10.7s-10.3-16-10.7-26.5H2083.9z"/>
</g>
</svg>
