<?xml version="1.0" encoding="utf-8"?>
<!-- Generator: Adobe Illustrator 26.5.0, SVG Export Plug-In . SVG Version: 6.00 Build 0)  -->
<svg version="1.1" id="Capa_1" xmlns="http://www.w3.org/2000/svg" xmlns:xlink="http://www.w3.org/1999/xlink" x="0px" y="0px"
	 viewBox="0 0 682.67 682.67" style="enable-background:new 0 0 682.67 682.67;" xml:space="preserve">
<style type="text/css">
	.st0{fill:#FFFFFF;}
</style>
<g>
	<path class="st0" d="M215.96,484.38c-68.59-3.46-110.11-51.06-121.46-91.09c18.59,2.75,36.9,2.92,55.2-2.48
		c-37.05-10.26-65.87-31.1-84.95-64.65c-11.33-19.91-16.65-41.42-16.87-65.52c18.29,8.72,36.46,15.42,58.31,15.6
		c-34.63-25.83-53.73-58.6-56.83-99.92c-1.97-26.28,3.72-51.08,17.34-74.56c70.99,83.61,160.46,129.3,269.43,137.04
		c-0.85-9.59-2.13-18.33-2.32-27.1c-1.21-54.05,29.73-102.37,78.9-123.7c48.71-21.13,105.15-10.66,143.49,26.82
		c3.07,3,5.65,3.77,9.91,2.81c26.79-6.05,52-16.06,77.34-30.61c-10.45,30.77-28.63,53.51-53.97,71.17
		c24.44-1.99,47.39-9.16,71.24-18.92c-13.92,20.89-29.43,38.08-47.05,53.41c-5.82,5.06-13.92,8.97-16.94,15.34
		c-2.92,6.17-0.55,14.81-0.67,22.36c-2.19,141.92-88.07,275.79-214.68,333.97c-59.74,27.46-122.74,36.88-188.02,31.89
		c-59.18-4.52-113.97-22.76-164.61-53.67c-1.28-0.78-2.51-1.67-5.49-3.68c35.76,3.15,69.2,1.01,101.97-8.36
		C157.91,521.18,187.77,506.3,215.96,484.38z"/>
</g>
</svg>
